<?xml version="1.0" encoding="UTF-8"?>
<svg id="Capa_2" data-name="Capa 2" xmlns="http://www.w3.org/2000/svg" viewBox="0 0 1101.92 1101.92">
  <defs>
    <style>
      .cls-1 {
        fill: #fff;
      }
    </style>
  </defs>
  <g id="Capa_1-2" data-name="Capa 1">
    <g>
      <path class="cls-1" d="M774.22,550.98c0,123.11-100.16,223.27-223.27,223.27-18.96,0-34.3-15.4-34.3-34.3s15.34-34.3,34.3-34.3c85.32,0,154.67-69.42,154.67-154.67,0-18.96,15.34-34.31,34.3-34.31s34.3,15.35,34.3,34.31Z"/>
      <path class="cls-1" d="M550.96,0C246.67,0,0,246.67,0,550.96s246.67,550.96,550.96,550.96h550.96v-550.96C1101.92,246.67,855.25,0,550.96,0ZM932.64,932.67c-20.52,20.51-53.76,20.51-74.28,0l-143.07-143.08c-46.72,32.25-103.28,51.15-164.34,51.15-160.04,0-289.82-129.73-289.82-289.76s129.78-289.82,289.82-289.82,289.82,129.72,289.82,289.82c0,60.99-18.9,117.62-51.14,164.34l143.01,143c20.52,20.52,20.52,53.83,0,74.35Z"/>
    </g>
  </g>
</svg>