<?xml version="1.0" encoding="UTF-8"?>
<svg id="Capa_2" data-name="Capa 2" xmlns="http://www.w3.org/2000/svg" viewBox="0 0 1022.02 178">
  <defs>
    <style>
      .cls-1 {
        fill: #fff;
      }

      .cls-2 {
        fill: #00cc8d;
      }

      .cls-3 {
        fill: #0e1a23;
      }
    </style>
  </defs>
  <g id="Capa_1-2" data-name="Capa 1">
    <g>
      <g>
        <path class="cls-2" d="M88.34,0C39.55,0,0,39.55,0,88.34s39.55,88.34,88.34,88.34h88.34v-88.34C176.68,39.55,137.13,0,88.34,0Z"/>
        <path class="cls-1" d="M149.54,137.62l-22.93-22.93c5.17-7.49,8.2-16.57,8.2-26.35,0-25.67-20.8-46.47-46.47-46.47s-46.47,20.8-46.47,46.47,20.81,46.46,46.47,46.46c9.79,0,18.86-3.03,26.35-8.2l22.94,22.94c3.29,3.29,8.62,3.29,11.91,0,3.29-3.29,3.29-8.63,0-11.92ZM88.34,124.14c-3.04,0-5.5-2.47-5.5-5.5s2.46-5.5,5.5-5.5c13.68,0,24.8-11.13,24.8-24.8,0-3.04,2.46-5.5,5.5-5.5s5.5,2.46,5.5,5.5c0,19.74-16.06,35.8-35.8,35.8Z"/>
      </g>
      <g>
        <path class="cls-3" d="M263.75,73.72c5.28-2.83,11.51-4.25,18.69-4.25,8.43,0,16.07,2.2,22.93,6.61,6.86,4.41,12.27,10.7,16.23,18.87,3.96,8.18,5.95,17.74,5.95,28.69s-1.98,20.54-5.95,28.78c-3.96,8.24-9.38,14.57-16.23,18.97-6.86,4.41-14.5,6.61-22.93,6.61-7.17,0-13.4-1.42-18.69-4.25s-9.38-6.76-12.27-11.8v14.72h-36.99V37.01h36.99v48.51c2.89-5.03,6.98-8.96,12.27-11.8ZM284.42,107.51c-3.71-3.84-8.28-5.76-13.68-5.76s-9.97,1.95-13.68,5.85c-3.71,3.9-5.57,9.25-5.57,16.04s1.85,12.33,5.57,16.23c3.71,3.9,8.27,5.85,13.68,5.85s9.97-1.98,13.68-5.95c3.71-3.96,5.57-9.34,5.57-16.14s-1.86-12.3-5.57-16.14Z"/>
        <path class="cls-3" d="M448.13,70.8v105.89h-37.18v-15.1c-3.15,4.78-7.49,8.65-13.02,11.61-5.54,2.96-11.89,4.44-19.06,4.44-12.33,0-22.05-4.06-29.16-12.17-7.11-8.12-10.66-19.16-10.66-33.12v-61.53h36.8v56.81c0,6.04,1.61,10.79,4.81,14.25,3.21,3.46,7.46,5.19,12.74,5.19s9.69-1.73,12.84-5.19c3.14-3.46,4.72-8.21,4.72-14.25v-56.81h37.18Z"/>
        <path class="cls-3" d="M485.14,173.19c-7.49-3.21-13.4-7.61-17.74-13.21-4.34-5.6-6.76-11.92-7.27-18.97h35.86c.5,3.4,2.08,6.04,4.72,7.93,2.64,1.89,5.91,2.83,9.82,2.83,3.02,0,5.41-.63,7.17-1.89,1.76-1.26,2.64-2.89,2.64-4.91,0-2.64-1.45-4.59-4.34-5.85-2.9-1.26-7.68-2.64-14.34-4.15-7.55-1.51-13.84-3.21-18.88-5.1-5.03-1.89-9.41-4.97-13.12-9.25-3.71-4.28-5.57-10.06-5.57-17.36,0-6.29,1.7-11.99,5.1-17.08,3.4-5.1,8.4-9.15,15-12.17,6.61-3.02,14.56-4.53,23.88-4.53,13.84,0,24.73,3.4,32.65,10.19,7.93,6.79,12.52,15.73,13.78,26.8h-33.41c-.63-3.4-2.11-6.01-4.44-7.83-2.33-1.82-5.44-2.74-9.34-2.74-3.02,0-5.32.57-6.89,1.7-1.58,1.13-2.36,2.71-2.36,4.72,0,2.52,1.44,4.44,4.34,5.76,2.89,1.32,7.55,2.67,13.97,4.06,7.67,1.64,14.06,3.46,19.16,5.47,5.1,2.01,9.56,5.26,13.4,9.72,3.84,4.47,5.76,10.54,5.76,18.21,0,6.17-1.79,11.7-5.38,16.61-3.59,4.91-8.68,8.78-15.29,11.61-6.61,2.83-14.38,4.25-23.31,4.25-9.56,0-18.09-1.6-25.58-4.81Z"/>
        <path class="cls-3" d="M569.55,94.95c4.53-8.18,10.85-14.47,18.97-18.87,8.12-4.4,17.39-6.61,27.84-6.61,13.46,0,24.79,3.68,33.97,11.04,9.18,7.36,15.1,17.65,17.74,30.86h-39.26c-2.27-6.92-6.67-10.38-13.21-10.38-4.66,0-8.34,1.92-11.04,5.76-2.71,3.84-4.06,9.47-4.06,16.89s1.35,13.09,4.06,16.99c2.7,3.9,6.38,5.85,11.04,5.85,6.67,0,11.07-3.46,13.21-10.38h39.26c-2.64,13.09-8.56,23.34-17.74,30.77-9.19,7.43-20.51,11.14-33.97,11.14-10.45,0-19.72-2.2-27.84-6.61-8.12-4.4-14.44-10.69-18.97-18.87-4.53-8.18-6.79-17.8-6.79-28.88s2.26-20.51,6.79-28.69Z"/>
        <path class="cls-3" d="M680.1,94.95c3.96-8.18,9.37-14.47,16.23-18.87,6.86-4.4,14.5-6.61,22.93-6.61,7.3,0,13.59,1.45,18.88,4.34,5.28,2.9,9.37,6.79,12.27,11.7v-14.72h36.99v105.89h-36.99v-14.72c-2.9,4.91-7.02,8.81-12.36,11.7-5.35,2.9-11.61,4.34-18.78,4.34-8.43,0-16.08-2.2-22.93-6.61-6.86-4.4-12.27-10.73-16.23-18.97-3.96-8.24-5.95-17.84-5.95-28.78s1.98-20.51,5.95-28.69ZM744.84,107.6c-3.71-3.9-8.28-5.85-13.68-5.85s-10.13,1.92-13.78,5.76c-3.65,3.84-5.47,9.22-5.47,16.14s1.82,12.17,5.47,16.14c3.65,3.96,8.24,5.95,13.78,5.95s9.97-1.95,13.68-5.85c3.71-3.9,5.57-9.31,5.57-16.23s-1.86-12.14-5.57-16.04Z"/>
        <path class="cls-2" d="M918.93,43.62l-46.81,90.79v42.28h-37.18v-42.28l-46.81-90.79h42.28l23.4,51.34,23.4-51.34h41.71Z"/>
        <path class="cls-2" d="M914.72,94.95c3.96-8.18,9.37-14.47,16.23-18.87,6.86-4.4,14.5-6.61,22.93-6.61,7.3,0,13.59,1.45,18.88,4.34,5.28,2.9,9.37,6.79,12.27,11.7v-14.72h36.99v105.89h-36.99v-14.72c-2.9,4.91-7.02,8.81-12.36,11.7-5.35,2.9-11.61,4.34-18.78,4.34-8.43,0-16.08-2.2-22.93-6.61-6.86-4.4-12.27-10.73-16.23-18.97-3.96-8.24-5.95-17.84-5.95-28.78s1.98-20.51,5.95-28.69ZM979.46,107.6c-3.71-3.9-8.28-5.85-13.68-5.85s-10.13,1.92-13.78,5.76c-3.65,3.84-5.47,9.22-5.47,16.14s1.82,12.17,5.47,16.14c3.65,3.96,8.24,5.95,13.78,5.95s9.97-1.95,13.68-5.85c3.71-3.9,5.57-9.31,5.57-16.23s-1.86-12.14-5.57-16.04Z"/>
      </g>
    </g>
  </g>
</svg>