<?xml version="1.0" encoding="UTF-8"?>
<svg id="Capa_2" data-name="Capa 2" xmlns="http://www.w3.org/2000/svg" viewBox="0 0 1101.91 1101.91">
  <defs>
    <style>
      .cls-1 {
        fill: #fff;
      }

      .cls-2 {
        fill: #00cc8d;
      }
    </style>
  </defs>
  <g id="Capa_1-2" data-name="Capa 1">
    <g>
      <path class="cls-2" d="M550.96,0C246.67,0,0,246.67,0,550.96s246.67,550.96,550.96,550.96h550.96v-550.96C1101.91,246.67,855.24,0,550.96,0Z"/>
      <path class="cls-1" d="M932.64,858.32l-143.01-143.01c32.24-46.71,51.14-103.34,51.14-164.34,0-160.1-129.72-289.82-289.82-289.82s-289.82,129.72-289.82,289.82,129.79,289.76,289.82,289.76c61.06,0,117.63-18.9,164.34-51.14l143.07,143.07c20.52,20.52,53.76,20.52,74.28,0,20.52-20.52,20.52-53.82,0-74.34ZM550.95,774.25c-18.96,0-34.3-15.4-34.3-34.3s15.34-34.3,34.3-34.3c85.32,0,154.67-69.42,154.67-154.67,0-18.96,15.34-34.3,34.3-34.3s34.3,15.34,34.3,34.3c0,123.11-100.16,223.28-223.28,223.28Z"/>
    </g>
  </g>
</svg>